<?xml version="1.0" encoding="utf-8"?>
<!DOCTYPE svg PUBLIC "-//W3C//DTD SVG 1.0//EN" "http://www.w3.org/TR/2001/REC-SVG-20010904/DTD/svg10.dtd">
<svg xmlns="http://www.w3.org/2000/svg" width="400" height="400"><style type="text/css">.filled { fill: #dff }</style><g class="vertical"><animateTransform dur="15s" repeatCount="indefinite" from="0,-160" to="0,0" type="translate" attributeName="transform"/><rect class="filled" x="0" y="0" width="20" height="40"/><rect class="filled" x="0" y="80" width="20" height="40"/><rect class="filled" x="0" y="160" width="20" height="40"/><rect class="filled" x="0" y="240" width="20" height="40"/><rect class="filled" x="0" y="320" width="20" height="40"/><rect class="filled" x="0" y="400" 
    width="20" height="40"/><rect class="filled" x="0" y="480" width="20" height="40"/><rect class="filled" x="0" y="560" width="20" height="40"/><rect class="filled" x="0" y="640" width="20" height="40"/><rect class="filled" x="0" y="720" width="20" height="40"/></g><g class="vertical"><animateTransform dur="15s" repeatCount="indefinite" from="0,0" to="0,-160" type="translate" attributeName="transform"/><rect class="filled" x="20" y="1" width="20" height="40"/><rect class="filled" x="20" y="81" width="20" height="40"/><rect class="filled" x="20" y="161" width="20" height="40"/><rect class="filled" x="20" y="241" width="20" height="40"/><rect class="filled" x="20" y="321" width="20" height="40"/><rect class="filled" x="20" y="401" width="20" height="40"/><rect class="filled" x="20" y="481" width="20" height="40"/><rect class="filled" x="20" y="561" width="20" height="40"/><rect class="filled" x="20" y="641" width="20" height="40"/><rect class="filled" x="20" y="721" width="20" height="40"/></g><g class="vertical"><animateTransform dur="15s" repeatCount="indefinite" from="0,-160" to="0,0" type="translate" attributeName="transform"/><rect class="filled" x="40" y="2" width="20" height="40"/><rect class="filled" x="40" y="82" width="20" height="40"/><rect class="filled" x="40" y="162" width="20" height="40"/><rect class="filled" x="40" y="242" width="20" height="40"/><rect class="filled" x="40" y="322" width="20" height="40"/><rect class="filled" x="40" y="402" width="20" height="40"/><rect class="filled" x="40" y="482" width="20" height="40"/><rect class="filled" x="40" y="562" width="20" height="40"/><rect class="filled" x="40" y="642" width="20" height="40"/><rect class="filled" x="40" y="722" width="20" height="40"/></g><g class="vertical"><animateTransform dur="15s" repeatCount="indefinite" from="0,0" to="0,-160" type="translate" attributeName="transform"/><rect class="filled" x="60" y="3" width="20" height="40"/><rect 
    class="filled" x="60" y="83" width="20" height="40"/><rect class="filled" x="60" y="163" width="20" height="40"/><rect class="filled" x="60" y="243" width="20" height="40"/><rect class="filled" x="60" y="323" width="20" height="40"/><rect class="filled" x="60" y="403" width="20" height="40"/><rect class="filled" x="60" y="483" width="20" height="40"/><rect class="filled" x="60" y="563" width="20" height="40"/><rect class="filled" x="60" y="643" width="20" height="40"/><rect class="filled" x="60" y="723" width="20" height="40"/></g><g class="vertical"><animateTransform dur="15s" 
    repeatCount="indefinite" from="0,-160" to="0,0" type="translate" attributeName="transform"/><rect class="filled" x="80" y="4" width="20" height="40"/><rect class="filled" x="80" y="84" width="20" height="40"/><rect class="filled" x="80" y="164" width="20" height="40"/><rect class="filled" x="80" y="244" width="20" height="40"/><rect class="filled" x="80" y="324" width="20" height="40"/><rect class="filled" x="80" y="404" width="20" height="40"/><rect class="filled" x="80" y="484" width="20" height="40"/><rect class="filled" x="80" y="564" width="20" height="40"/><rect class="filled" x="80" y="644" width="20" height="40"/><rect class="filled" x="80" y="724" width="20" height="40"/></g><g class="vertical"><animateTransform dur="15s" repeatCount="indefinite" from="0,0" to="0,-160" type="translate" attributeName="transform"/><rect class="filled" x="100" y="5" width="20" height="40"/><rect class="filled" x="100" y="85" width="20" height="40"/><rect class="filled" x="100" y="165" width="20" height="40"/><rect class="filled" x="100" y="245" width="20" height="40"/><rect class="filled" x="100" y="325" width="20" height="40"/><rect class="filled" x="100" y="405" width="20" height="40"/><rect class="filled" x="100" y="485" width="20" height="40"/><rect class="filled" x="100" y="565" width="20" height="40"/><rect class="filled" x="100" y="645" width="20" height="40"/><rect class="filled" x="100" y="725" width="20" height="40"/></g><g class="vertical"><animateTransform dur="15s" repeatCount="indefinite" from="0,-160" to="0,0" type="translate" attributeName="transform"/><rect class="filled" x="120" y="6" width="20" height="40"/><rect class="filled" x="120" y="86" width="20" height="40"/><rect class="filled" x="120" y="166" width="20" height="40"/><rect class="filled" x="120" y="246" width="20" height="40"/><rect class="filled" x="120" y="326" width="20" height="40"/><rect class="filled" x="120" y="406" width="20" height="40"/><rect class="filled" x="120" y="486" width="20" height="40"/><rect class="filled" x="120" y="566" width="20" height="40"/><rect class="filled" x="120" y="646" width="20" height="40"/><rect class="filled" x="120" y="726" width="20" height="40"/></g><g class="vertical"><animateTransform dur="15s" repeatCount="indefinite" from="0,0" to="0,-160" type="translate" attributeName="transform"/><rect class="filled" x="140" y="7" width="20" height="40"/><rect class="filled" x="140" y="87" width="20" height="40"/><rect class="filled" x="140" y="167" width="20" height="40"/><rect class="filled" x="140" y="247" width="20" height="40"/><rect class="filled" x="140" y="327" width="20" height="40"/><rect class="filled" x="140" y="407" width="20" height="40"/><rect class="filled" x="140" y="487" width="20" height="40"/><rect class="filled" x="140" y="567" width="20" height="40"/><rect class="filled" x="140" y="647" width="20" height="40"/><rect class="filled" x="140" y="727" width="20" height="40"/></g><g class="vertical"><animateTransform dur="15s" repeatCount="indefinite" from="0,-160" to="0,0" type="translate" attributeName="transform"/><rect class="filled" x="160" y="8" width="20" height="40"/><rect class="filled" x="160" y="88" width="20" height="40"/><rect class="filled" x="160" y="168" width="20" height="40"/><rect class="filled" x="160" y="248" width="20" height="40"/><rect class="filled" x="160" y="328" width="20" height="40"/><rect class="filled" x="160" y="408" width="20" height="40"/><rect class="filled" x="160" y="488" width="20" height="40"/><rect class="filled" x="160" y="568" width="20" height="40"/><rect class="filled" x="160" y="648" width="20" height="40"/><rect class="filled" x="160" y="728" width="20" height="40"/></g><g class="vertical"><animateTransform dur="15s" repeatCount="indefinite" from="0,0" to="0,-160" type="translate" attributeName="transform"/><rect class="filled" x="180" y="9" width="20" height="40"/><rect class="filled" x="180" y="89" width="20" height="40"/><rect class="filled" x="180" y="169" width="20" height="40"/><rect class="filled" x="180" y="249" width="20" height="40"/><rect class="filled" x="180" y="329" width="20" height="40"/><rect class="filled" x="180" y="409" width="20" height="40"/><rect class="filled" x="180" y="489" width="20" height="40"/><rect class="filled" x="180" 
    y="569" width="20" height="40"/><rect class="filled" x="180" y="649" width="20" height="40"/><rect class="filled" x="180" y="729" width="20" height="40"/></g><g class="vertical"><animateTransform dur="15s" repeatCount="indefinite" from="0,-160" to="0,0" type="translate" attributeName="transform"/><rect class="filled" x="200" y="10" width="20" height="40"/><rect class="filled" x="200" y="90" width="20" height="40"/><rect class="filled" x="200" y="170" width="20" height="40"/><rect class="filled" x="200" y="250" width="20" height="40"/><rect class="filled" x="200" y="330" width="20" height="40"/><rect class="filled" x="200" y="410" width="20" height="40"/><rect class="filled" x="200" y="490" width="20" height="40"/><rect class="filled" x="200" y="570" width="20" height="40"/><rect class="filled" x="200" y="650" width="20" height="40"/><rect class="filled" x="200" y="730" width="20" height="40"/></g><g class="vertical"><animateTransform dur="15s" repeatCount="indefinite" from="0,0" to="0,-160" type="translate" attributeName="transform"/><rect class="filled" x="220" y="11" width="20" height="40"/><rect class="filled" x="220" y="91" width="20" height="40"/><rect class="filled" x="220" y="171" width="20" height="40"/><rect class="filled" x="220" y="251" width="20" height="40"/><rect class="filled" x="220" y="331" width="20" height="40"/><rect class="filled" x="220" y="411" width="20" height="40"/><rect class="filled" x="220" y="491" width="20" height="40"/><rect class="filled" x="220" y="571" width="20" height="40"/><rect class="filled" x="220" y="651" width="20" height="40"/><rect class="filled" x="220" y="731" width="20" height="40"/></g><g class="vertical"><animateTransform dur="15s" repeatCount="indefinite" from="0,-160" to="0,0" type="translate" attributeName="transform"/><rect class="filled" x="240" y="12" width="20" height="40"/><rect class="filled" x="240" y="92" width="20" height="40"/><rect class="filled" x="240" y="172" width="20" height="40"/><rect class="filled" x="240" y="252" width="20" height="40"/><rect class="filled" x="240" y="332" width="20" height="40"/><rect class="filled" x="240" y="412" width="20" height="40"/><rect class="filled" x="240" y="492" width="20" height="40"/><rect class="filled" x="240" y="572" width="20" height="40"/><rect class="filled" x="240" y="652" width="20" height="40"/><rect class="filled" x="240" y="732" width="20" height="40"/></g><g class="vertical"><animateTransform dur="15s" repeatCount="indefinite" from="0,0" to="0,-160" type="translate" attributeName="transform"/><rect class="filled" x="260" y="13" width="20" height="40"/><rect class="filled" x="260" y="93" width="20" height="40"/><rect class="filled" x="260" y="173" width="20" height="40"/><rect class="filled" x="260" y="253" width="20" height="40"/><rect class="filled" x="260" y="333" width="20" height="40"/><rect class="filled" x="260" y="413" width="20" height="40"/><rect class="filled" x="260" y="493" width="20" height="40"/><rect class="filled" x="260" y="573" width="20" height="40"/><rect class="filled" x="260" y="653" width="20" height="40"/><rect class="filled" x="260" y="733" width="20" height="40"/></g><g class="vertical"><animateTransform dur="15s" repeatCount="indefinite" from="0,-160" to="0,0" type="translate" attributeName="transform"/><rect class="filled" x="280" y="14" width="20" height="40"/><rect class="filled" x="280" y="94" width="20" height="40"/><rect class="filled" x="280" y="174" width="20" height="40"/><rect class="filled" x="280" y="254" width="20" height="40"/><rect class="filled" x="280" y="334" width="20" height="40"/><rect class="filled" x="280" y="414" width="20" height="40"/><rect class="filled" x="280" y="494" width="20" height="40"/><rect class="filled" x="280" y="574" width="20" height="40"/><rect class="filled" x="280" y="654" width="20" height="40"/><rect class="filled" x="280" y="734" width="20" height="40"/></g><g class="vertical"><animateTransform dur="15s" repeatCount="indefinite" from="0,0" to="0,-160" type="translate" attributeName="transform"/><rect class="filled" x="300" y="15" width="20" height="40"/><rect class="filled" x="300" y="95" width="20" height="40"/><rect class="filled" x="300" y="175" width="20" height="40"/><rect class="filled" x="300" y="255" width="20" height="40"/><rect class="filled" x="300" y="335" width="20" height="40"/><rect class="filled" x="300" y="415" width="20" height="40"/><rect class="filled" x="300" y="495" width="20" height="40"/><rect class="filled" x="300" y="575" width="20" height="40"/><rect class="filled" x="300" y="655" width="20" height="40"/><rect class="filled" x="300" y="735" width="20" height="40"/></g><g class="vertical"><animateTransform dur="15s" repeatCount="indefinite" from="0,-160" to="0,0" type="translate" attributeName="transform"/><rect class="filled" x="320" y="16" width="20" height="40"/><rect class="filled" x="320" y="96" width="20" height="40"/><rect class="filled" x="320" y="176" width="20" height="40"/><rect class="filled" x="320" y="256" width="20" height="40"/><rect class="filled" x="320" y="336" width="20" height="40"/><rect class="filled" x="320" y="416" width="20" height="40"/><rect class="filled" x="320" y="496" width="20" height="40"/><rect class="filled" x="320" y="576" width="20" height="40"/><rect class="filled" x="320" y="656" width="20" height="40"/><rect class="filled" x="320" y="736" width="20" height="40"/></g><g class="vertical"><animateTransform 
    dur="15s" repeatCount="indefinite" from="0,0" to="0,-160" type="translate" attributeName="transform"/><rect class="filled" x="340" y="17" width="20" height="40"/><rect class="filled" x="340" y="97" width="20" height="40"/><rect class="filled" x="340" y="177" width="20" height="40"/><rect class="filled" x="340" y="257" width="20" height="40"/><rect class="filled" x="340" y="337" width="20" height="40"/><rect class="filled" x="340" y="417" width="20" height="40"/><rect class="filled" x="340" y="497" width="20" height="40"/><rect class="filled" x="340" y="577" width="20" height="40"/><rect class="filled" x="340" y="657" width="20" height="40"/><rect class="filled" x="340" y="737" width="20" height="40"/></g><g class="vertical"><animateTransform dur="15s" repeatCount="indefinite" from="0,-160" to="0,0" type="translate" attributeName="transform"/><rect class="filled" x="360" y="18" width="20" height="40"/><rect class="filled" x="360" y="98" width="20" height="40"/><rect class="filled" x="360" y="178" width="20" height="40"/><rect class="filled" x="360" y="258" width="20" height="40"/><rect class="filled" x="360" y="338" width="20" height="40"/><rect class="filled" x="360" y="418" width="20" height="40"/><rect class="filled" x="360" y="498" width="20" height="40"/><rect class="filled" x="360" y="578" width="20" height="40"/><rect class="filled" x="360" y="658" width="20" height="40"/><rect class="filled" x="360" y="738" width="20" height="40"/></g><g class="vertical"><animateTransform dur="15s" repeatCount="indefinite" from="0,0" to="0,-160" type="translate" attributeName="transform"/><rect class="filled" x="380" y="19" width="20" height="40"/><rect class="filled" x="380" y="99" width="20" height="40"/><rect class="filled" x="380" 
    y="179" width="20" height="40"/><rect class="filled" x="380" y="259" width="20" height="40"/><rect class="filled" x="380" y="339" width="20" height="40"/><rect class="filled" x="380" y="419" width="20" height="40"/><rect class="filled" x="380" y="499" width="20" height="40"/><rect class="filled" x="380" y="579" width="20" height="40"/><rect class="filled" x="380" y="659" width="20" height="40"/><rect class="filled" x="380" y="739" width="20" height="40"/></g></svg>